<svg viewBox="0 0 100 100" fill="none" xmlns="http://www.w3.org/2000/svg">
<path d="M46.7897 36.8266V21.8621L21.6553 38.6187L32.8672 46.1234L46.7897 36.8266Z" fill="black"/>
<path d="M19.0703 44.6224V55.3754L27.1147 49.9989L19.0703 44.6224Z" fill="black"/>
<path d="M21.6553 61.3792L46.7897 78.1358V63.1713L32.8672 53.8745L21.6553 61.3792Z" fill="black"/>
<path d="M78.3444 38.6209L53.21 21.8621V36.8288L67.1324 46.1234L78.3444 38.6209Z" fill="black"/>
<path d="M85.9229 64.0494L51.7921 86.8097C51.2608 87.1619 50.6375 87.3498 50 87.3498C49.3625 87.3498 48.7392 87.1619 48.2079 86.8097L14.0703 64.0494C13.6362 63.751 13.2806 63.3522 13.0337 62.8869C12.7869 62.4216 12.656 61.9036 12.6523 61.3768V38.6187C12.6563 38.093 12.7874 37.576 13.0343 37.1118C13.2812 36.6476 13.6366 36.25 14.0703 35.9529L48.2079 13.1947C48.739 12.842 49.3624 12.6538 50 12.6538C50.6376 12.6538 51.261 12.842 51.7921 13.1947L85.9229 35.9529C86.3566 36.25 86.7121 36.6476 86.959 37.1118C87.2059 37.576 87.3369 38.093 87.3409 38.6187V61.3768C87.3373 61.9036 87.2064 62.4216 86.9595 62.8869C86.7126 63.3522 86.357 63.751 85.9229 64.0494V64.0494ZM50 0C22.3835 0 0 22.3885 0 50.0011C0 77.6137 22.3835 100 50 100C77.6165 100 100 77.616 100 50.0011C100 22.3863 77.6142 0 50 0" fill="black"/>
<path d="M49.9995 42.4136L38.6621 49.9989L49.9995 57.5864L61.3368 49.9989L49.9995 42.4136Z" fill="black"/>
<path d="M80.9279 55.3777V44.6248L72.8857 50.0012L80.9279 55.3777Z" fill="black"/>
<path d="M53.21 63.1713V78.1358L78.3444 61.3791L67.1302 53.8767L53.21 63.1713Z" fill="black"/>
</svg>
