<svg viewBox="0 0 380 525" fill="none" xmlns="http://www.w3.org/2000/svg">
<circle cx="189.044" cy="195.411" r="138.5" fill="#CECCCC"/>
<line x1="1.54395" y1="111.411" x2="376.544" y2="111.411" stroke="black"/>
<line x1="0.594799" y1="524.226" x2="379.07" y2="0.707042" stroke="black"/>
<path d="M62.4189 110.696C61.6089 111.056 60.6189 111.416 59.4489 111.776C58.2789 112.136 57.0489 112.316 55.7589 112.316C54.9189 112.316 54.1239 112.211 53.3739 112.001C52.6539 111.791 52.0089 111.461 51.4389 111.011C50.8989 110.531 50.4639 109.931 50.1339 109.211C49.8039 108.461 49.6389 107.561 49.6389 106.511V92.9665H46.5339V88.3315H49.6389V80.6815H55.6689V88.3315H60.6189V92.9665H55.6689V104.486C55.6689 105.326 55.8789 105.926 56.2989 106.286C56.7489 106.616 57.2889 106.781 57.9189 106.781C58.5489 106.781 59.1639 106.676 59.7639 106.466C60.3639 106.256 60.8439 106.076 61.2039 105.926L62.4189 110.696ZM87.4745 111.911H81.4445V98.6815C81.4445 96.8215 81.0995 95.4565 80.4095 94.5865C79.7195 93.6865 78.7445 93.2365 77.4845 93.2365C76.9445 93.2365 76.3745 93.3565 75.7745 93.5965C75.1745 93.8365 74.6045 94.1815 74.0645 94.6315C73.5245 95.0515 73.0295 95.5615 72.5795 96.1615C72.1295 96.7615 71.7995 97.4215 71.5895 98.1415V111.911H65.5595V79.0615H71.5895V92.6965C72.4595 91.1665 73.6295 89.9965 75.0995 89.1865C76.5995 88.3465 78.2495 87.9265 80.0495 87.9265C81.5795 87.9265 82.8245 88.1965 83.7845 88.7365C84.7445 89.2465 85.4945 89.9365 86.0345 90.8065C86.5745 91.6765 86.9495 92.6665 87.1595 93.7765C87.3695 94.8865 87.4745 96.0265 87.4745 97.1965V111.911ZM103.608 112.361C101.688 112.361 99.9627 112.031 98.4327 111.371C96.9027 110.711 95.5977 109.826 94.5177 108.716C93.4677 107.576 92.6577 106.271 92.0877 104.801C91.5177 103.331 91.2327 101.786 91.2327 100.166C91.2327 98.5165 91.5177 96.9565 92.0877 95.4865C92.6577 94.0165 93.4677 92.7265 94.5177 91.6165C95.5977 90.4765 96.9027 89.5765 98.4327 88.9165C99.9627 88.2565 101.688 87.9265 103.608 87.9265C105.528 87.9265 107.238 88.2565 108.738 88.9165C110.268 89.5765 111.558 90.4765 112.608 91.6165C113.688 92.7265 114.513 94.0165 115.083 95.4865C115.653 96.9565 115.938 98.5165 115.938 100.166C115.938 101.786 115.653 103.331 115.083 104.801C114.513 106.271 113.703 107.576 112.653 108.716C111.603 109.826 110.313 110.711 108.783 111.371C107.253 112.031 105.528 112.361 103.608 112.361ZM97.4427 100.166C97.4427 101.216 97.5927 102.176 97.8927 103.046C98.2227 103.886 98.6577 104.621 99.1977 105.251C99.7677 105.881 100.428 106.376 101.178 106.736C101.928 107.066 102.738 107.231 103.608 107.231C104.478 107.231 105.288 107.066 106.038 106.736C106.788 106.376 107.433 105.881 107.973 105.251C108.543 104.621 108.978 103.871 109.278 103.001C109.608 102.131 109.773 101.171 109.773 100.121C109.773 99.1015 109.608 98.1565 109.278 97.2865C108.978 96.4165 108.543 95.6665 107.973 95.0365C107.433 94.4065 106.788 93.9265 106.038 93.5965C105.288 93.2365 104.478 93.0565 103.608 93.0565C102.738 93.0565 101.928 93.2365 101.178 93.5965C100.428 93.9565 99.7677 94.4515 99.1977 95.0815C98.6577 95.7115 98.2227 96.4615 97.8927 97.3315C97.5927 98.2015 97.4427 99.1465 97.4427 100.166ZM156.638 111.911H150.608V98.6815C150.608 96.7915 150.278 95.4115 149.618 94.5415C148.988 93.6715 148.103 93.2365 146.963 93.2365C145.763 93.2365 144.638 93.7015 143.588 94.6315C142.538 95.5315 141.788 96.7165 141.338 98.1865V111.911H135.308V98.6815C135.308 96.7915 134.978 95.4115 134.318 94.5415C133.688 93.6715 132.803 93.2365 131.663 93.2365C130.493 93.2365 129.368 93.6865 128.288 94.5865C127.238 95.4865 126.488 96.6715 126.038 98.1415V111.911H120.008V88.3315H125.453V92.6965C126.323 91.1665 127.508 89.9965 129.008 89.1865C130.538 88.3465 132.278 87.9265 134.228 87.9265C136.208 87.9265 137.738 88.4065 138.818 89.3665C139.898 90.3265 140.588 91.5115 140.888 92.9215C141.848 91.3015 143.063 90.0715 144.533 89.2315C146.003 88.3615 147.683 87.9265 149.573 87.9265C151.013 87.9265 152.198 88.1965 153.128 88.7365C154.058 89.2765 154.778 89.9815 155.288 90.8515C155.798 91.7215 156.143 92.7115 156.323 93.8215C156.533 94.9315 156.638 96.0565 156.638 97.1965V111.911ZM168.323 112.361C167.183 112.361 166.118 112.181 165.128 111.821C164.138 111.431 163.283 110.906 162.563 110.246C161.843 109.556 161.273 108.761 160.853 107.861C160.463 106.961 160.268 105.971 160.268 104.891C160.268 103.781 160.508 102.761 160.988 101.831C161.498 100.871 162.188 100.061 163.058 99.4015C163.958 98.7415 165.023 98.2315 166.253 97.8715C167.483 97.4815 168.833 97.2865 170.303 97.2865C171.353 97.2865 172.373 97.3765 173.363 97.5565C174.383 97.7365 175.283 97.9915 176.063 98.3215V96.9715C176.063 95.4115 175.613 94.2115 174.713 93.3715C173.843 92.5315 172.538 92.1115 170.798 92.1115C169.538 92.1115 168.308 92.3365 167.108 92.7865C165.908 93.2365 164.678 93.8965 163.418 94.7665L161.573 90.9415C164.603 88.9315 167.873 87.9265 171.383 87.9265C174.773 87.9265 177.398 88.7665 179.258 90.4465C181.148 92.0965 182.093 94.4965 182.093 97.6465V104.981C182.093 105.611 182.198 106.061 182.408 106.331C182.648 106.601 183.023 106.751 183.533 106.781V111.911C182.513 112.121 181.628 112.226 180.878 112.226C179.738 112.226 178.853 111.971 178.223 111.461C177.623 110.951 177.248 110.276 177.098 109.436L176.963 108.131C175.913 109.511 174.638 110.561 173.138 111.281C171.638 112.001 170.033 112.361 168.323 112.361ZM170.033 107.951C171.053 107.951 172.013 107.771 172.913 107.411C173.843 107.051 174.563 106.571 175.073 105.971C175.733 105.461 176.063 104.891 176.063 104.261V101.561C175.343 101.291 174.563 101.081 173.723 100.931C172.883 100.751 172.073 100.661 171.293 100.661C169.733 100.661 168.458 101.021 167.468 101.741C166.478 102.431 165.983 103.316 165.983 104.396C165.983 105.416 166.373 106.271 167.153 106.961C167.933 107.621 168.893 107.951 170.033 107.951ZM196.637 112.361C194.657 112.361 192.722 112.046 190.832 111.416C188.942 110.786 187.322 109.886 185.972 108.716L188.222 104.936C189.662 105.956 191.057 106.736 192.407 107.276C193.787 107.786 195.152 108.041 196.502 108.041C197.702 108.041 198.647 107.816 199.337 107.366C200.027 106.916 200.372 106.271 200.372 105.431C200.372 104.591 199.967 103.976 199.157 103.586C198.347 103.196 197.027 102.746 195.197 102.236C193.667 101.816 192.362 101.411 191.282 101.021C190.202 100.631 189.332 100.196 188.672 99.7165C188.012 99.2065 187.532 98.6365 187.232 98.0065C186.932 97.3465 186.782 96.5665 186.782 95.6665C186.782 94.4665 187.007 93.3865 187.457 92.4265C187.937 91.4665 188.597 90.6565 189.437 89.9965C190.277 89.3065 191.252 88.7815 192.362 88.4215C193.502 88.0615 194.732 87.8815 196.052 87.8815C197.822 87.8815 199.472 88.1365 201.002 88.6465C202.562 89.1565 203.987 89.9815 205.277 91.1215L202.847 94.7665C201.647 93.8665 200.477 93.2065 199.337 92.7865C198.227 92.3665 197.117 92.1565 196.007 92.1565C194.987 92.1565 194.132 92.3665 193.442 92.7865C192.752 93.2065 192.407 93.8815 192.407 94.8115C192.407 95.2315 192.482 95.5765 192.632 95.8465C192.812 96.1165 193.082 96.3565 193.442 96.5665C193.802 96.7765 194.267 96.9865 194.837 97.1965C195.437 97.3765 196.172 97.5715 197.042 97.7815C198.662 98.2015 200.042 98.6215 201.182 99.0415C202.352 99.4615 203.297 99.9415 204.017 100.481C204.767 101.021 205.307 101.651 205.637 102.371C205.997 103.061 206.177 103.901 206.177 104.891C206.177 107.201 205.322 109.031 203.612 110.381C201.902 111.701 199.577 112.361 196.637 112.361ZM229.816 112.361C227.836 112.361 225.901 112.046 224.011 111.416C222.121 110.786 220.501 109.886 219.151 108.716L221.401 104.936C222.841 105.956 224.236 106.736 225.586 107.276C226.966 107.786 228.331 108.041 229.681 108.041C230.881 108.041 231.826 107.816 232.516 107.366C233.206 106.916 233.551 106.271 233.551 105.431C233.551 104.591 233.146 103.976 232.336 103.586C231.526 103.196 230.206 102.746 228.376 102.236C226.846 101.816 225.541 101.411 224.461 101.021C223.381 100.631 222.511 100.196 221.851 99.7165C221.191 99.2065 220.711 98.6365 220.411 98.0065C220.111 97.3465 219.961 96.5665 219.961 95.6665C219.961 94.4665 220.186 93.3865 220.636 92.4265C221.116 91.4665 221.776 90.6565 222.616 89.9965C223.456 89.3065 224.431 88.7815 225.541 88.4215C226.681 88.0615 227.911 87.8815 229.231 87.8815C231.001 87.8815 232.651 88.1365 234.181 88.6465C235.741 89.1565 237.166 89.9815 238.456 91.1215L236.026 94.7665C234.826 93.8665 233.656 93.2065 232.516 92.7865C231.406 92.3665 230.296 92.1565 229.186 92.1565C228.166 92.1565 227.311 92.3665 226.621 92.7865C225.931 93.2065 225.586 93.8815 225.586 94.8115C225.586 95.2315 225.661 95.5765 225.811 95.8465C225.991 96.1165 226.261 96.3565 226.621 96.5665C226.981 96.7765 227.446 96.9865 228.016 97.1965C228.616 97.3765 229.351 97.5715 230.221 97.7815C231.841 98.2015 233.221 98.6215 234.361 99.0415C235.531 99.4615 236.476 99.9415 237.196 100.481C237.946 101.021 238.486 101.651 238.816 102.371C239.176 103.061 239.356 103.901 239.356 104.891C239.356 107.201 238.501 109.031 236.791 110.381C235.081 111.701 232.756 112.361 229.816 112.361ZM279.904 111.911H273.874V98.6815C273.874 96.7915 273.544 95.4115 272.884 94.5415C272.254 93.6715 271.369 93.2365 270.229 93.2365C269.029 93.2365 267.904 93.7015 266.854 94.6315C265.804 95.5315 265.054 96.7165 264.604 98.1865V111.911H258.574V98.6815C258.574 96.7915 258.244 95.4115 257.584 94.5415C256.954 93.6715 256.069 93.2365 254.929 93.2365C253.759 93.2365 252.634 93.6865 251.554 94.5865C250.504 95.4865 249.754 96.6715 249.304 98.1415V111.911H243.274V88.3315H248.719V92.6965C249.589 91.1665 250.774 89.9965 252.274 89.1865C253.804 88.3465 255.544 87.9265 257.494 87.9265C259.474 87.9265 261.004 88.4065 262.084 89.3665C263.164 90.3265 263.854 91.5115 264.154 92.9215C265.114 91.3015 266.329 90.0715 267.799 89.2315C269.269 88.3615 270.949 87.9265 272.839 87.9265C274.279 87.9265 275.464 88.1965 276.394 88.7365C277.324 89.2765 278.044 89.9815 278.554 90.8515C279.064 91.7215 279.409 92.7115 279.589 93.8215C279.799 94.9315 279.904 96.0565 279.904 97.1965V111.911ZM285.154 111.911V88.3315H291.184V111.911H285.154ZM285.154 85.0465V79.0615H291.184V85.0465H285.154ZM310.754 110.696C309.944 111.056 308.954 111.416 307.784 111.776C306.614 112.136 305.384 112.316 304.094 112.316C303.254 112.316 302.459 112.211 301.709 112.001C300.989 111.791 300.344 111.461 299.774 111.011C299.234 110.531 298.799 109.931 298.469 109.211C298.139 108.461 297.974 107.561 297.974 106.511V92.9665H294.869V88.3315H297.974V80.6815H304.004V88.3315H308.954V92.9665H304.004V104.486C304.004 105.326 304.214 105.926 304.634 106.286C305.084 106.616 305.624 106.781 306.254 106.781C306.884 106.781 307.499 106.676 308.099 106.466C308.699 106.256 309.179 106.076 309.539 105.926L310.754 110.696ZM335.809 111.911H329.779V98.6815C329.779 96.8215 329.434 95.4565 328.744 94.5865C328.054 93.6865 327.079 93.2365 325.819 93.2365C325.279 93.2365 324.709 93.3565 324.109 93.5965C323.509 93.8365 322.939 94.1815 322.399 94.6315C321.859 95.0515 321.364 95.5615 320.914 96.1615C320.464 96.7615 320.134 97.4215 319.924 98.1415V111.911H313.894V79.0615H319.924V92.6965C320.794 91.1665 321.964 89.9965 323.434 89.1865C324.934 88.3465 326.584 87.9265 328.384 87.9265C329.914 87.9265 331.159 88.1965 332.119 88.7365C333.079 89.2465 333.829 89.9365 334.369 90.8065C334.909 91.6765 335.284 92.6665 335.494 93.7765C335.704 94.8865 335.809 96.0265 335.809 97.1965V111.911Z" fill="black"/>
</svg>
