<svg width="1442" height="568" viewBox="0 0 1442 568" fill="none" xmlns="http://www.w3.org/2000/svg">
<circle cx="921" cy="322.178" r="200" fill="#CECCCC"/>
<path d="M1.02178 179.678L1438.5 179.678" stroke="black"/>
<path d="M1.00047 505.177L1440.96 62.9856" stroke="black"/>
<path d="M252.25 178.288C250.99 178.848 249.45 179.408 247.63 179.968C245.81 180.528 243.897 180.808 241.89 180.808C240.583 180.808 239.347 180.644 238.18 180.318C237.06 179.991 236.057 179.478 235.17 178.778C234.33 178.031 233.653 177.098 233.14 175.978C232.627 174.811 232.37 173.411 232.37 171.778V150.708H227.54V143.498H232.37V131.598H241.75V143.498H249.45V150.708H241.75V168.628C241.75 169.934 242.077 170.868 242.73 171.428C243.43 171.941 244.27 172.198 245.25 172.198C246.23 172.198 247.187 172.034 248.12 171.708C249.053 171.381 249.8 171.101 250.36 170.868L252.25 178.288ZM291.225 180.178H281.845V159.598C281.845 156.704 281.309 154.581 280.235 153.228C279.162 151.828 277.645 151.128 275.685 151.128C274.845 151.128 273.959 151.314 273.025 151.688C272.092 152.061 271.205 152.598 270.365 153.298C269.525 153.951 268.755 154.744 268.055 155.678C267.355 156.611 266.842 157.638 266.515 158.758V180.178H257.135V129.078H266.515V150.288C267.869 147.908 269.689 146.088 271.975 144.828C274.309 143.521 276.875 142.868 279.675 142.868C282.055 142.868 283.992 143.288 285.485 144.128C286.979 144.921 288.145 145.994 288.985 147.348C289.825 148.701 290.409 150.241 290.735 151.968C291.062 153.694 291.225 155.468 291.225 157.288V180.178ZM316.321 180.878C313.335 180.878 310.651 180.364 308.271 179.338C305.891 178.311 303.861 176.934 302.181 175.208C300.548 173.434 299.288 171.404 298.401 169.118C297.515 166.831 297.071 164.428 297.071 161.908C297.071 159.341 297.515 156.914 298.401 154.628C299.288 152.341 300.548 150.334 302.181 148.608C303.861 146.834 305.891 145.434 308.271 144.408C310.651 143.381 313.335 142.868 316.321 142.868C319.308 142.868 321.968 143.381 324.301 144.408C326.681 145.434 328.688 146.834 330.321 148.608C332.001 150.334 333.285 152.341 334.171 154.628C335.058 156.914 335.501 159.341 335.501 161.908C335.501 164.428 335.058 166.831 334.171 169.118C333.285 171.404 332.025 173.434 330.391 175.208C328.758 176.934 326.751 178.311 324.371 179.338C321.991 180.364 319.308 180.878 316.321 180.878ZM306.731 161.908C306.731 163.541 306.965 165.034 307.431 166.388C307.945 167.694 308.621 168.838 309.461 169.818C310.348 170.798 311.375 171.568 312.541 172.128C313.708 172.641 314.968 172.898 316.321 172.898C317.675 172.898 318.935 172.641 320.101 172.128C321.268 171.568 322.271 170.798 323.111 169.818C323.998 168.838 324.675 167.671 325.141 166.318C325.655 164.964 325.911 163.471 325.911 161.838C325.911 160.251 325.655 158.781 325.141 157.428C324.675 156.074 323.998 154.908 323.111 153.928C322.271 152.948 321.268 152.201 320.101 151.688C318.935 151.128 317.675 150.848 316.321 150.848C314.968 150.848 313.708 151.128 312.541 151.688C311.375 152.248 310.348 153.018 309.461 153.998C308.621 154.978 307.945 156.144 307.431 157.498C306.965 158.851 306.731 160.321 306.731 161.908ZM398.813 180.178H389.433V159.598C389.433 156.658 388.919 154.511 387.893 153.158C386.913 151.804 385.536 151.128 383.763 151.128C381.896 151.128 380.146 151.851 378.513 153.298C376.879 154.698 375.713 156.541 375.013 158.828V180.178H365.633V159.598C365.633 156.658 365.119 154.511 364.093 153.158C363.113 151.804 361.736 151.128 359.963 151.128C358.143 151.128 356.393 151.828 354.713 153.228C353.079 154.628 351.913 156.471 351.213 158.758V180.178H341.833V143.498H350.303V150.288C351.656 147.908 353.499 146.088 355.833 144.828C358.213 143.521 360.919 142.868 363.953 142.868C367.033 142.868 369.413 143.614 371.093 145.108C372.773 146.601 373.846 148.444 374.313 150.638C375.806 148.118 377.696 146.204 379.983 144.898C382.269 143.544 384.883 142.868 387.823 142.868C390.063 142.868 391.906 143.288 393.353 144.128C394.799 144.968 395.919 146.064 396.713 147.418C397.506 148.771 398.043 150.311 398.323 152.038C398.649 153.764 398.813 155.514 398.813 157.288V180.178ZM416.989 180.878C415.216 180.878 413.559 180.598 412.019 180.038C410.479 179.431 409.149 178.614 408.029 177.588C406.909 176.514 406.022 175.278 405.369 173.878C404.762 172.478 404.459 170.938 404.459 169.258C404.459 167.531 404.832 165.944 405.579 164.498C406.372 163.004 407.446 161.744 408.799 160.718C410.199 159.691 411.856 158.898 413.769 158.338C415.682 157.731 417.782 157.428 420.069 157.428C421.702 157.428 423.289 157.568 424.829 157.848C426.416 158.128 427.816 158.524 429.029 159.038V156.938C429.029 154.511 428.329 152.644 426.929 151.338C425.576 150.031 423.546 149.378 420.839 149.378C418.879 149.378 416.966 149.728 415.099 150.428C413.232 151.128 411.319 152.154 409.359 153.508L406.489 147.558C411.202 144.431 416.289 142.868 421.749 142.868C427.022 142.868 431.106 144.174 433.999 146.788C436.939 149.354 438.409 153.088 438.409 157.988V169.398C438.409 170.378 438.572 171.078 438.899 171.498C439.272 171.918 439.856 172.151 440.649 172.198V180.178C439.062 180.504 437.686 180.668 436.519 180.668C434.746 180.668 433.369 180.271 432.389 179.478C431.456 178.684 430.872 177.634 430.639 176.328L430.429 174.298C428.796 176.444 426.812 178.078 424.479 179.198C422.146 180.318 419.649 180.878 416.989 180.878ZM419.649 174.018C421.236 174.018 422.729 173.738 424.129 173.178C425.576 172.618 426.696 171.871 427.489 170.938C428.516 170.144 429.029 169.258 429.029 168.278V164.078C427.909 163.658 426.696 163.331 425.389 163.098C424.082 162.818 422.822 162.678 421.609 162.678C419.182 162.678 417.199 163.238 415.659 164.358C414.119 165.431 413.349 166.808 413.349 168.488C413.349 170.074 413.956 171.404 415.169 172.478C416.382 173.504 417.876 174.018 419.649 174.018ZM461.034 180.878C457.954 180.878 454.944 180.388 452.004 179.408C449.064 178.428 446.544 177.028 444.444 175.208L447.944 169.328C450.184 170.914 452.354 172.128 454.454 172.968C456.601 173.761 458.724 174.158 460.824 174.158C462.691 174.158 464.161 173.808 465.234 173.108C466.308 172.408 466.844 171.404 466.844 170.098C466.844 168.791 466.214 167.834 464.954 167.228C463.694 166.621 461.641 165.921 458.794 165.128C456.414 164.474 454.384 163.844 452.704 163.238C451.024 162.631 449.671 161.954 448.644 161.208C447.618 160.414 446.871 159.528 446.404 158.548C445.938 157.521 445.704 156.308 445.704 154.908C445.704 153.041 446.054 151.361 446.754 149.868C447.501 148.374 448.528 147.114 449.834 146.088C451.141 145.014 452.658 144.198 454.384 143.638C456.158 143.078 458.071 142.798 460.124 142.798C462.878 142.798 465.444 143.194 467.824 143.988C470.251 144.781 472.468 146.064 474.474 147.838L470.694 153.508C468.828 152.108 467.008 151.081 465.234 150.428C463.508 149.774 461.781 149.448 460.054 149.448C458.468 149.448 457.138 149.774 456.064 150.428C454.991 151.081 454.454 152.131 454.454 153.578C454.454 154.231 454.571 154.768 454.804 155.188C455.084 155.608 455.504 155.981 456.064 156.308C456.624 156.634 457.348 156.961 458.234 157.288C459.168 157.568 460.311 157.871 461.664 158.198C464.184 158.851 466.331 159.504 468.104 160.158C469.924 160.811 471.394 161.558 472.514 162.398C473.681 163.238 474.521 164.218 475.034 165.338C475.594 166.411 475.874 167.718 475.874 169.258C475.874 172.851 474.544 175.698 471.884 177.798C469.224 179.851 465.608 180.878 461.034 180.878ZM512.646 180.878C509.566 180.878 506.556 180.388 503.616 179.408C500.676 178.428 498.156 177.028 496.056 175.208L499.556 169.328C501.796 170.914 503.966 172.128 506.066 172.968C508.212 173.761 510.336 174.158 512.436 174.158C514.302 174.158 515.772 173.808 516.846 173.108C517.919 172.408 518.456 171.404 518.456 170.098C518.456 168.791 517.826 167.834 516.566 167.228C515.306 166.621 513.252 165.921 510.406 165.128C508.026 164.474 505.996 163.844 504.316 163.238C502.636 162.631 501.282 161.954 500.256 161.208C499.229 160.414 498.482 159.528 498.016 158.548C497.549 157.521 497.316 156.308 497.316 154.908C497.316 153.041 497.666 151.361 498.366 149.868C499.112 148.374 500.139 147.114 501.446 146.088C502.752 145.014 504.269 144.198 505.996 143.638C507.769 143.078 509.682 142.798 511.736 142.798C514.489 142.798 517.056 143.194 519.436 143.988C521.862 144.781 524.079 146.064 526.086 147.838L522.306 153.508C520.439 152.108 518.619 151.081 516.846 150.428C515.119 149.774 513.392 149.448 511.666 149.448C510.079 149.448 508.749 149.774 507.676 150.428C506.602 151.081 506.066 152.131 506.066 153.578C506.066 154.231 506.182 154.768 506.416 155.188C506.696 155.608 507.116 155.981 507.676 156.308C508.236 156.634 508.959 156.961 509.846 157.288C510.779 157.568 511.922 157.871 513.276 158.198C515.796 158.851 517.942 159.504 519.716 160.158C521.536 160.811 523.006 161.558 524.126 162.398C525.292 163.238 526.132 164.218 526.646 165.338C527.206 166.411 527.486 167.718 527.486 169.258C527.486 172.851 526.156 175.698 523.496 177.798C520.836 179.851 517.219 180.878 512.646 180.878ZM590.561 180.178H581.181V159.598C581.181 156.658 580.667 154.511 579.641 153.158C578.661 151.804 577.284 151.128 575.511 151.128C573.644 151.128 571.894 151.851 570.261 153.298C568.627 154.698 567.461 156.541 566.761 158.828V180.178H557.381V159.598C557.381 156.658 556.867 154.511 555.841 153.158C554.861 151.804 553.484 151.128 551.711 151.128C549.891 151.128 548.141 151.828 546.461 153.228C544.827 154.628 543.661 156.471 542.961 158.758V180.178H533.581V143.498H542.051V150.288C543.404 147.908 545.247 146.088 547.581 144.828C549.961 143.521 552.667 142.868 555.701 142.868C558.781 142.868 561.161 143.614 562.841 145.108C564.521 146.601 565.594 148.444 566.061 150.638C567.554 148.118 569.444 146.204 571.731 144.898C574.017 143.544 576.631 142.868 579.571 142.868C581.811 142.868 583.654 143.288 585.101 144.128C586.547 144.968 587.667 146.064 588.461 147.418C589.254 148.771 589.791 150.311 590.071 152.038C590.397 153.764 590.561 155.514 590.561 157.288V180.178ZM598.727 180.178V143.498H608.107V180.178H598.727ZM598.727 138.388V129.078H608.107V138.388H598.727ZM638.549 178.288C637.289 178.848 635.749 179.408 633.929 179.968C632.109 180.528 630.195 180.808 628.189 180.808C626.882 180.808 625.645 180.644 624.479 180.318C623.359 179.991 622.355 179.478 621.469 178.778C620.629 178.031 619.952 177.098 619.439 175.978C618.925 174.811 618.669 173.411 618.669 171.778V150.708H613.839V143.498H618.669V131.598H628.049V143.498H635.749V150.708H628.049V168.628C628.049 169.934 628.375 170.868 629.029 171.428C629.729 171.941 630.569 172.198 631.549 172.198C632.529 172.198 633.485 172.034 634.419 171.708C635.352 171.381 636.099 171.101 636.659 170.868L638.549 178.288ZM677.524 180.178H668.144V159.598C668.144 156.704 667.607 154.581 666.534 153.228C665.461 151.828 663.944 151.128 661.984 151.128C661.144 151.128 660.257 151.314 659.324 151.688C658.391 152.061 657.504 152.598 656.664 153.298C655.824 153.951 655.054 154.744 654.354 155.678C653.654 156.611 653.141 157.638 652.814 158.758V180.178H643.434V129.078H652.814V150.288C654.167 147.908 655.987 146.088 658.274 144.828C660.607 143.521 663.174 142.868 665.974 142.868C668.354 142.868 670.291 143.288 671.784 144.128C673.277 144.921 674.444 145.994 675.284 147.348C676.124 148.701 676.707 150.241 677.034 151.968C677.361 153.694 677.524 155.468 677.524 157.288V180.178Z" fill="black"/>
</svg>
