<svg viewBox="0 0 100 100" fill="none" xmlns="http://www.w3.org/2000/svg">
<mask id="path-1-inside-1" fill="white">
<path d="M75.5149 75.4672H64.9503V58.9152C64.9503 54.9692 64.8726 49.8913 59.4616 49.8913C53.9551 49.8913 53.1117 54.1879 53.1117 58.6311V75.4672H42.5337V41.4466H52.6722V46.085H52.8143C54.2325 43.4218 57.686 40.5966 62.8263 40.5966C73.5218 40.5966 75.5127 47.6453 75.5127 56.8134L75.5149 75.4672ZM30.6152 36.7859C29.4032 36.7859 28.2185 36.4265 27.2107 35.7532C26.203 35.0799 25.4176 34.1229 24.9538 33.0032C24.49 31.8835 24.3686 30.6515 24.6051 29.4628C24.8415 28.2742 25.4251 27.1823 26.2821 26.3254C27.1391 25.4684 28.231 24.8848 29.4197 24.6483C30.6084 24.4119 31.8406 24.5333 32.9603 24.997C34.08 25.4608 35.0371 26.2462 35.7104 27.2539C36.3838 28.2616 36.7432 29.4463 36.7432 30.6583C36.742 32.2831 36.096 33.841 34.947 34.9899C33.7981 36.1388 32.2401 36.7847 30.6152 36.7859ZM35.9131 75.4583H25.3307V41.4466H35.9131V75.4583ZM50 0C22.3855 0 0 22.3867 0 49.9978C0 77.6089 22.3855 100 50 100C77.6145 100 100 77.6222 100 50.0022C100 22.3823 77.6167 0.00443883 50 0.00443883"/>
</mask>
<path d="M75.5149 75.4672H64.9503V58.9152C64.9503 54.9692 64.8726 49.8913 59.4616 49.8913C53.9551 49.8913 53.1117 54.1879 53.1117 58.6311V75.4672H42.5337V41.4466H52.6722V46.085H52.8143C54.2325 43.4218 57.686 40.5966 62.8263 40.5966C73.5218 40.5966 75.5127 47.6453 75.5127 56.8134L75.5149 75.4672ZM30.6152 36.7859C29.4032 36.7859 28.2185 36.4265 27.2107 35.7532C26.203 35.0799 25.4176 34.1229 24.9538 33.0032C24.49 31.8835 24.3686 30.6515 24.6051 29.4628C24.8415 28.2742 25.4251 27.1823 26.2821 26.3254C27.1391 25.4684 28.231 24.8848 29.4197 24.6483C30.6084 24.4119 31.8406 24.5333 32.9603 24.997C34.08 25.4608 35.0371 26.2462 35.7104 27.2539C36.3838 28.2616 36.7432 29.4463 36.7432 30.6583C36.742 32.2831 36.096 33.841 34.947 34.9899C33.7981 36.1388 32.2401 36.7847 30.6152 36.7859ZM35.9131 75.4583H25.3307V41.4466H35.9131V75.4583ZM50 0C22.3855 0 0 22.3867 0 49.9978C0 77.6089 22.3855 100 50 100C77.6145 100 100 77.6222 100 50.0022C100 22.3823 77.6167 0.00443883 50 0.00443883" fill="black"/>
<path d="M75.5149 75.4672V85.4672H85.5161L85.5149 75.466L75.5149 75.4672ZM64.9503 75.4672H54.9503V85.4672H64.9503V75.4672ZM53.1117 75.4672V85.4672H63.1117V75.4672H53.1117ZM42.5337 75.4672H32.5337V85.4672H42.5337V75.4672ZM42.5337 41.4466V31.4466H32.5337V41.4466H42.5337ZM52.6722 41.4466H62.6722V31.4466H52.6722V41.4466ZM52.6722 46.085H42.6722V56.085H52.6722V46.085ZM52.8143 46.085V56.085H58.8186L61.6408 50.7854L52.8143 46.085ZM75.5127 56.8134L65.5127 56.8134L65.5127 56.8146L75.5127 56.8134ZM30.6152 36.7859L30.6152 46.7859L30.6225 46.7859L30.6152 36.7859ZM36.7432 30.6583L46.7432 30.6655V30.6583H36.7432ZM35.9131 75.4583V85.4583H45.9131V75.4583H35.9131ZM25.3307 75.4583H15.3307V85.4583H25.3307V75.4583ZM25.3307 41.4466V31.4466H15.3307V41.4466H25.3307ZM35.9131 41.4466H45.9131V31.4466H35.9131V41.4466ZM75.5149 65.4672H64.9503V85.4672H75.5149V65.4672ZM74.9503 75.4672V58.9152H54.9503V75.4672H74.9503ZM74.9503 58.9152C74.9503 57.379 75.0585 53.1073 73.5366 49.2518C72.6626 47.0375 71.0952 44.4849 68.3363 42.5538C65.5537 40.6061 62.4171 39.8913 59.4616 39.8913V59.8913C59.2115 59.8913 58.1138 59.8111 56.8676 58.9388C55.6452 58.0832 55.1118 57.0467 54.9335 56.5951C54.7894 56.23 54.8441 56.1778 54.893 56.7277C54.9403 57.2587 54.9503 57.9008 54.9503 58.9152H74.9503ZM59.4616 39.8913C56.786 39.8913 53.9509 40.418 51.3047 41.8823C48.6005 43.3786 46.7063 45.5163 45.4661 47.7639C43.2454 51.7885 43.1117 56.2257 43.1117 58.6311H63.1117C63.1117 57.7931 63.155 57.2754 63.2029 56.9774C63.2535 56.662 63.2604 56.9131 62.9773 57.4261C62.6363 58.0441 61.9853 58.8299 60.988 59.3818C60.0487 59.9016 59.3839 59.8913 59.4616 59.8913V39.8913ZM43.1117 58.6311V75.4672H63.1117V58.6311H43.1117ZM53.1117 65.4672H42.5337V85.4672H53.1117V65.4672ZM52.5337 75.4672V41.4466H32.5337V75.4672H52.5337ZM42.5337 51.4466H52.6722V31.4466H42.5337V51.4466ZM42.6722 41.4466V46.085H62.6722V41.4466H42.6722ZM52.6722 56.085H52.8143V36.085H52.6722V56.085ZM61.6408 50.7854C61.5561 50.9444 61.5052 50.9904 61.5262 50.9681C61.5417 50.9517 61.5907 50.9049 61.678 50.851C61.7608 50.7998 61.8808 50.7405 62.0493 50.6922C62.2143 50.6449 62.4658 50.5966 62.8263 50.5966V30.5966C53.7999 30.5966 47.0515 35.6316 43.9878 41.3847L61.6408 50.7854ZM62.8263 50.5966C64.4361 50.5966 65.0119 50.8653 65.0259 50.8719C65.0259 50.872 64.9523 50.8344 64.8563 50.7481C64.7626 50.6639 64.7203 50.5987 64.7227 50.6025C64.75 50.6458 64.9892 51.0618 65.1951 52.1967C65.4006 53.3292 65.5127 54.8314 65.5127 56.8134H85.5127C85.5127 52.0026 85.1009 45.4205 81.638 39.9314C77.5104 33.3886 70.643 30.5966 62.8263 30.5966V50.5966ZM65.5127 56.8146L65.5149 75.4684L85.5149 75.466L85.5127 56.8122L65.5127 56.8146ZM30.6152 26.7859C31.381 26.7859 32.1295 27.013 32.7663 27.4384L21.6552 44.068C24.3074 45.8401 27.4255 46.7859 30.6152 46.7859L30.6152 26.7859ZM32.7663 27.4384C33.403 27.8639 33.8994 28.4686 34.1925 29.1762L15.715 36.8302C16.9358 39.7772 19.003 42.296 21.6552 44.068L32.7663 27.4384ZM34.1925 29.1762C34.4856 29.8839 34.5623 30.6626 34.4129 31.4138L14.7972 27.5118C14.1749 30.6404 14.4943 33.8832 15.715 36.8302L34.1925 29.1762ZM34.4129 31.4138C34.2635 32.165 33.8946 32.855 33.353 33.3966L19.2112 19.2541C16.9557 21.5096 15.4195 24.3833 14.7972 27.5118L34.4129 31.4138ZM33.353 33.3966C32.8115 33.9381 32.1216 34.3068 31.3706 34.4562L27.4689 14.8405C24.3405 15.4627 21.4668 16.9987 19.2112 19.2541L33.353 33.3966ZM31.3706 34.4562C30.6195 34.6056 29.8411 34.5289 29.1336 34.2359L36.787 15.7582C33.84 14.5376 30.5973 14.2182 27.4689 14.8405L31.3706 34.4562ZM29.1336 34.2359C28.4261 33.9429 27.8214 33.4466 27.3958 32.8098L44.025 21.698C42.2528 19.0459 39.7339 16.9788 36.787 15.7582L29.1336 34.2359ZM27.3958 32.8098C26.9703 32.173 26.7432 31.4242 26.7432 30.6583H46.7432C46.7432 27.4684 45.7972 24.3502 44.025 21.698L27.3958 32.8098ZM26.7432 30.651C26.7439 29.626 27.1514 28.6433 27.8761 27.9186L42.0179 42.0611C45.0405 39.0386 46.7401 34.9401 46.7432 30.6655L26.7432 30.651ZM27.8761 27.9186C28.6008 27.194 29.5833 26.7867 30.608 26.7859L30.6225 46.7859C34.8969 46.7828 38.9954 45.0835 42.0179 42.0611L27.8761 27.9186ZM35.9131 65.4583H25.3307V85.4583H35.9131V65.4583ZM35.3307 75.4583V41.4466H15.3307V75.4583H35.3307ZM25.3307 51.4466H35.9131V31.4466H25.3307V51.4466ZM25.9131 41.4466V75.4583H45.9131V41.4466H25.9131ZM50 -10C16.8628 -10 -10 16.8637 -10 49.9978H10C10 27.9097 27.9082 10 50 10V-10ZM-10 49.9978C-10 83.1307 16.8616 110 50 110V90C27.9094 90 10 72.087 10 49.9978H-10ZM50 110C83.1361 110 110 83.1463 110 50.0022H90C90 72.098 72.093 90 50 90V110ZM110 50.0022C110 16.8584 83.1386 -9.99556 50 -9.99556V10.0044C72.0949 10.0044 90 27.9061 90 50.0022H110Z" fill="black" mask="url(#path-1-inside-1)"/>
</svg>
