<svg viewBox="0 0 327 158" fill="none" xmlns="http://www.w3.org/2000/svg">
<rect x="179" y="2" width="146" height="146" stroke="black" stroke-width="4"/>
<path d="M10.0781 133.977V146H3.04688V111.875H16.3594C18.9219 111.875 21.1719 112.344 23.1094 113.281C25.0625 114.219 26.5625 115.555 27.6094 117.289C28.6562 119.008 29.1797 120.969 29.1797 123.172C29.1797 126.516 28.0312 129.156 25.7344 131.094C23.4531 133.016 20.2891 133.977 16.2422 133.977H10.0781ZM10.0781 128.281H16.3594C18.2188 128.281 19.6328 127.844 20.6016 126.969C21.5859 126.094 22.0781 124.844 22.0781 123.219C22.0781 121.547 21.5859 120.195 20.6016 119.164C19.6172 118.133 18.2578 117.602 16.5234 117.57H10.0781V128.281ZM46.6641 133.508H41.0625V146H34.0312V111.875H46.7109C50.7422 111.875 53.8516 112.773 56.0391 114.57C58.2266 116.367 59.3203 118.906 59.3203 122.188C59.3203 124.516 58.8125 126.461 57.7969 128.023C56.7969 129.57 55.2734 130.805 53.2266 131.727L60.6094 145.672V146H53.0625L46.6641 133.508ZM41.0625 127.812H46.7344C48.5 127.812 49.8672 127.367 50.8359 126.477C51.8047 125.57 52.2891 124.328 52.2891 122.75C52.2891 121.141 51.8281 119.875 50.9062 118.953C50 118.031 48.6016 117.57 46.7109 117.57H41.0625V127.812ZM92.7188 129.711C92.7188 133.07 92.125 136.016 90.9375 138.547C89.75 141.078 88.0469 143.031 85.8281 144.406C83.625 145.781 81.0938 146.469 78.2344 146.469C75.4062 146.469 72.8828 145.789 70.6641 144.43C68.4453 143.07 66.7266 141.133 65.5078 138.617C64.2891 136.086 63.6719 133.18 63.6562 129.898V128.211C63.6562 124.852 64.2578 121.898 65.4609 119.352C66.6797 116.789 68.3906 114.828 70.5938 113.469C72.8125 112.094 75.3438 111.406 78.1875 111.406C81.0312 111.406 83.5547 112.094 85.7578 113.469C87.9766 114.828 89.6875 116.789 90.8906 119.352C92.1094 121.898 92.7188 124.844 92.7188 128.188V129.711ZM85.5938 128.164C85.5938 124.586 84.9531 121.867 83.6719 120.008C82.3906 118.148 80.5625 117.219 78.1875 117.219C75.8281 117.219 74.0078 118.141 72.7266 119.984C71.4453 121.812 70.7969 124.5 70.7812 128.047V129.711C70.7812 133.195 71.4219 135.898 72.7031 137.82C73.9844 139.742 75.8281 140.703 78.2344 140.703C80.5938 140.703 82.4062 139.781 83.6719 137.938C84.9375 136.078 85.5781 133.375 85.5938 129.828V128.164ZM111.586 111.875H118.617V135.5C118.617 137.672 118.133 139.594 117.164 141.266C116.211 142.922 114.859 144.203 113.109 145.109C111.359 146.016 109.383 146.469 107.18 146.469C103.57 146.469 100.758 145.555 98.7422 143.727C96.7266 141.883 95.7188 139.281 95.7188 135.922H102.797C102.797 137.594 103.148 138.828 103.852 139.625C104.555 140.422 105.664 140.82 107.18 140.82C108.523 140.82 109.594 140.359 110.391 139.438C111.188 138.516 111.586 137.203 111.586 135.5V111.875ZM145.172 131.211H131.672V140.352H147.516V146H124.641V111.875H147.469V117.57H131.672V125.703H145.172V131.211ZM178.43 134.633C178.164 138.305 176.805 141.195 174.352 143.305C171.914 145.414 168.695 146.469 164.695 146.469C160.32 146.469 156.875 145 154.359 142.062C151.859 139.109 150.609 135.062 150.609 129.922V127.836C150.609 124.555 151.188 121.664 152.344 119.164C153.5 116.664 155.148 114.75 157.289 113.422C159.445 112.078 161.945 111.406 164.789 111.406C168.727 111.406 171.898 112.461 174.305 114.57C176.711 116.68 178.102 119.641 178.477 123.453H171.445C171.273 121.25 170.656 119.656 169.594 118.672C168.547 117.672 166.945 117.172 164.789 117.172C162.445 117.172 160.688 118.016 159.516 119.703C158.359 121.375 157.766 123.977 157.734 127.508V130.086C157.734 133.773 158.289 136.469 159.398 138.172C160.523 139.875 162.289 140.727 164.695 140.727C166.867 140.727 168.484 140.234 169.547 139.25C170.625 138.25 171.242 136.711 171.398 134.633H178.43ZM208.031 117.57H197.578V146H190.547V117.57H180.234V111.875H208.031V117.57ZM229.383 137.047C229.383 135.719 228.914 134.703 227.977 134C227.039 133.281 225.352 132.531 222.914 131.75C220.477 130.953 218.547 130.172 217.125 129.406C213.25 127.312 211.312 124.492 211.312 120.945C211.312 119.102 211.828 117.461 212.859 116.023C213.906 114.57 215.398 113.438 217.336 112.625C219.289 111.812 221.477 111.406 223.898 111.406C226.336 111.406 228.508 111.852 230.414 112.742C232.32 113.617 233.797 114.859 234.844 116.469C235.906 118.078 236.438 119.906 236.438 121.953H229.406C229.406 120.391 228.914 119.18 227.93 118.32C226.945 117.445 225.562 117.008 223.781 117.008C222.062 117.008 220.727 117.375 219.773 118.109C218.82 118.828 218.344 119.781 218.344 120.969C218.344 122.078 218.898 123.008 220.008 123.758C221.133 124.508 222.781 125.211 224.953 125.867C228.953 127.07 231.867 128.562 233.695 130.344C235.523 132.125 236.438 134.344 236.438 137C236.438 139.953 235.32 142.273 233.086 143.961C230.852 145.633 227.844 146.469 224.062 146.469C221.438 146.469 219.047 145.992 216.891 145.039C214.734 144.07 213.086 142.75 211.945 141.078C210.82 139.406 210.258 137.469 210.258 135.266H217.312C217.312 139.031 219.562 140.914 224.062 140.914C225.734 140.914 227.039 140.578 227.977 139.906C228.914 139.219 229.383 138.266 229.383 137.047Z" fill="black"/>
</svg>
